<?xml version="1.0" encoding="utf-8"?>
<!-- Generator: Adobe Illustrator 25.2.0, SVG Export Plug-In . SVG Version: 6.00 Build 0)  -->
<svg version="1.1" id="Layer_1" xmlns="http://www.w3.org/2000/svg" xmlns:xlink="http://www.w3.org/1999/xlink" x="0px" y="0px"
	 viewBox="0 0 841.89 595.28" style="enable-background:new 0 0 841.89 595.28;" xml:space="preserve">
<style type="text/css">
	.st0{fill:#00A79D;stroke:#00A79D;stroke-miterlimit:10;}
</style>
<path class="st0" d="M365.28,434c239.58,7.64,299.31-77.08,299.31-77.08l-74.31-63.89l-150.69-29.86l-157.64,53.47l-3.47,73.61
	L365.28,434z"/>
<polyline class="st0" points="354.86,298.59 369.44,247.19 319.44,206.92 335.42,234.69 278.47,319.42 301.39,366.64 348.61,340.94 
	"/>
<path class="st0" d="M290.97,263.17c0,0,83.33-24.31,83.33-26.39c0-2.08-9.72-54.86-9.72-54.86l-95.14-8.33
	c0,0-36.11,42.36-36.11,44.79"/>
<path class="st0" d="M196.53,268.03l80.56-22.22l-31.25-38.19c0,0-56.25,34.72-56.25,36.81c0,2.08,0,48.61,0,48.61"/>
<polyline class="st0" points="310.42,237.47 363.77,218.38 386.81,289.56 310.42,318.72 "/>
</svg>
